<svg width="39" height="71" viewBox="0 0 39 71" fill="none" xmlns="http://www.w3.org/2000/svg">
<path d="M13.7344 50.7812C13.7969 47.0625 14.2188 44.125 15 41.9688C15.7812 39.8125 17.375 37.4219 19.7812 34.7969L25.9219 28.4688C28.5469 25.5 29.8594 22.3125 29.8594 18.9062C29.8594 15.625 29 13.0625 27.2812 11.2188C25.5625 9.34375 23.0625 8.40625 19.7812 8.40625C16.5938 8.40625 14.0312 9.25 12.0938 10.9375C10.1562 12.625 9.1875 14.8906 9.1875 17.7344H0.515625C0.578125 12.6719 2.375 8.59375 5.90625 5.5C9.46875 2.375 14.0938 0.8125 19.7812 0.8125C25.6875 0.8125 30.2812 2.40625 33.5625 5.59375C36.875 8.75 38.5312 13.0938 38.5312 18.625C38.5312 24.0938 36 29.4844 30.9375 34.7969L25.8281 39.8594C23.5469 42.3906 22.4062 46.0312 22.4062 50.7812H13.7344ZM13.3594 65.6406C13.3594 64.2344 13.7812 63.0625 14.625 62.125C15.5 61.1562 16.7812 60.6719 18.4688 60.6719C20.1562 60.6719 21.4375 61.1562 22.3125 62.125C23.1875 63.0625 23.625 64.2344 23.625 65.6406C23.625 67.0469 23.1875 68.2188 22.3125 69.1562C21.4375 70.0625 20.1562 70.5156 18.4688 70.5156C16.7812 70.5156 15.5 70.0625 14.625 69.1562C13.7812 68.2188 13.3594 67.0469 13.3594 65.6406Z" fill="black"/>
</svg>
