<svg id="visual" viewBox="0 0 900 600" width="900" height="600" xmlns="http://www.w3.org/2000/svg" xmlns:xlink="http://www.w3.org/1999/xlink" version="1.1"><rect x="0" y="0" width="900" height="600" fill="#d01462"></rect><path d="M0 264L16.7 260.3C33.3 256.7 66.7 249.3 100 240.2C133.3 231 166.7 220 200 221C233.3 222 266.7 235 300 240C333.3 245 366.7 242 400 228.8C433.3 215.7 466.7 192.3 500 192.2C533.3 192 566.7 215 600 231.2C633.3 247.3 666.7 256.7 700 267.5C733.3 278.3 766.7 290.7 800 277.7C833.3 264.7 866.7 226.3 883.3 207.2L900 188" fill="none" stroke-linecap="round" stroke-linejoin="miter" stroke="#F7770F" stroke-width="40"></path></svg>